<?xml version="1.0" encoding="iso-8859-1"?>
<!-- Uploaded to: SVG Repo, www.svgrepo.com, Generator: SVG Repo Mixer Tools -->
<svg fill="#000000" height="800px" width="800px" version="1.1" id="Layer_1" xmlns="http://www.w3.org/2000/svg" xmlns:xlink="http://www.w3.org/1999/xlink" 
	 viewBox="0 0 512 512" xml:space="preserve">
<g transform="translate(1 1)">
	<g>
		<g>
			<path d="M144.92,144.067c2.56,0,4.267-0.853,5.973-2.56c6.827-6.827,16.213-9.387,24.747-6.827
				c4.267,0.853,9.387-1.707,10.24-5.973c1.707-4.267-1.707-9.387-5.973-10.24c-14.507-4.267-29.867,0-40.96,11.093
				c-3.413,3.413-3.413,8.533,0,11.947C140.653,143.213,142.36,144.067,144.92,144.067z"/>
			<path d="M301.933,99.693c0.853,0.853,2.56,1.707,4.267,1.707c2.56,0,5.12-1.707,6.827-5.12c0.853-1.707,5.12-4.267,10.24-4.267
				c2.56,0,6.827,0.853,9.387,5.12c2.56,4.267,7.68,5.12,11.947,2.56s5.12-7.68,2.56-11.947
				c-5.973-7.68-14.507-11.947-23.893-11.947s-19.627,5.12-23.893,11.947C296.813,92.013,297.667,97.133,301.933,99.693z"/>
			<path d="M199.533,82.627c0.853,0.853,2.56,1.707,4.267,1.707c2.56,0,5.12-1.707,7.68-4.267c0.853-1.707,5.12-4.267,10.24-4.267
				c2.56,0,6.827,0.853,8.533,4.267c2.56,4.267,7.68,5.12,11.947,2.56s5.12-7.68,2.56-11.947
				c-5.12-7.68-14.507-11.947-23.893-11.947c-9.387,0-19.627,5.12-23.893,11.947C194.413,74.947,195.267,80.067,199.533,82.627z"/>
			<path d="M250.733,142.36c0.853,0.853,2.56,1.707,4.267,1.707c2.56,0,5.12-1.707,7.68-5.12c0.853-1.707,5.12-4.267,10.24-4.267
				c2.56,0.853,6.827,0.853,9.387,5.12s7.68,5.12,11.947,2.56s5.12-7.68,2.56-11.947c-5.973-7.68-14.507-11.947-23.893-11.947
				c-10.24,0-19.627,4.267-24.747,11.947C245.613,134.68,246.467,139.8,250.733,142.36z"/>
			<path d="M255,297.667c9.387,0,17.067,7.68,17.067,17.067c0,5.12,3.413,8.533,8.533,8.533s8.533-3.413,8.533-8.533
				c0-18.773-15.36-34.133-34.133-34.133c-5.12,0-8.533,3.413-8.533,8.533S249.88,297.667,255,297.667z"/>
			<path d="M263.533,340.333c0-5.12-3.413-8.533-8.533-8.533c-9.387,0-17.067-7.68-17.067-17.067c0-5.12-3.413-8.533-8.533-8.533
				c-5.12,0-8.533,3.413-8.533,8.533c0,18.773,15.36,34.133,34.133,34.133C260.12,348.867,263.533,345.453,263.533,340.333z"/>
			<path d="M459.8,186.733c0-11.752-7.281-21.261-17.758-24.45c5.789-7.274,9.224-16.541,9.224-26.75
				c0-20.48-15.36-38.4-34.987-41.813c-2.56-14.507-11.947-25.6-24.747-31.573c-2.56-19.627-17.92-34.987-37.547-37.547
				C347.16,9.24,331.8-1,314.733-1c-11.093,0-22.187,4.267-29.867,12.8C277.187,3.267,266.093-1,255-1
				c-10.108,0-19.382,3.333-27.007,9.985c-1.703-1.667-3.573-3.166-5.586-4.463C217.113,0.846,210.688-1,203.8-1
				c-16.213,0-29.867,11.093-33.28,25.6c-20.48-0.853-39.253,14.507-42.667,34.987C110.787,63,97.133,76.653,93.72,93.72
				c-19.627,3.413-34.987,21.333-34.987,41.813c0,10.209,3.435,19.475,9.224,26.75c-10.477,3.189-17.758,12.699-17.758,24.45
				c0,11.627,7.129,21.054,17.427,24.342l15,267.498C83.48,496.493,98.84,511,116.76,511h13.653h39.253H229.4h51.2h64h39.253h9.387
				c17.92,0,32.427-14.507,34.133-32.427l14.952-267.483C452.649,207.817,459.8,198.378,459.8,186.733z M101.4,109.933
				c5.12,0,8.533-3.413,8.533-8.533c0-14.507,11.093-25.6,25.6-25.6c9.387,0,17.92,5.12,22.187,12.8
				c1.707,2.56,5.12,4.267,7.68,4.267c0.853,0,2.56,0,4.267-0.853c3.413-2.56,5.12-7.68,2.56-11.947
				c-6.041-10.068-15.784-17.474-27.14-20.187c3.05-10.72,12.659-18.213,24.58-18.213c1.707,0,4.267,0,5.973,0.853
				c2.56,0.853,5.973,0,7.68-1.707c2.56-1.707,3.413-4.267,3.413-6.827c0-0.853,0-0.853,0-0.853c0-9.387,7.68-17.067,17.067-17.067
				c0.527,0,1.05,0.024,1.569,0.068c0.016,0.001,0.032,0.003,0.048,0.005c4.155,0.369,8.005,2.148,10.833,4.92
				c0.106,0.111,0.215,0.217,0.317,0.331c0.033,0.034,0.063,0.07,0.096,0.104c1.016,1.154,1.862,2.477,2.497,3.958
				c0.255,1.022,0.68,1.872,1.218,2.587c0.225,0.817,0.401,1.658,0.488,2.533c0.853,4.267,4.267,7.68,8.533,7.68
				c0,0,0.853,0,0.853-0.853c5.12,0,7.68-4.267,7.68-9.387c-0.242-1.531-0.591-3.032-1.038-4.494
				c4.879-4.667,11.213-7.452,18.104-7.452c9.387,0,17.92,5.12,22.187,13.653c3.413,5.12,11.947,5.12,15.36,0
				c4.267-8.533,12.8-13.653,22.187-13.653c8.733,0,16.54,4.116,21.116,10.657c-9.925,3.283-18.506,10.174-24.529,19.209
				c-1.707,4.267-0.853,9.387,3.413,11.947c1.707,0.853,2.56,0.853,4.267,0.853c3.413,0,5.973-1.707,7.68-4.267
				c4.267-7.68,12.8-12.8,22.187-12.8c14.507,0,25.6,11.093,25.6,24.747c0,0.853,0,1.707,0,1.707c0,4.267,2.56,7.68,5.973,8.533
				c9.303,1.994,15.999,8.653,18.516,17.141c-8.799,1.866-17,6.512-22.782,13.579c-3.413,3.413-2.56,8.533,0.853,11.947
				c1.707,1.707,4.267,2.56,5.973,2.56c2.56,0,5.12-1.707,5.12-3.413c5.12-5.12,11.947-8.533,19.627-8.533
				c0.145,0,0.284-0.013,0.427-0.018c0.143,0.005,0.281,0.018,0.427,0.018c14.507,0,25.6,11.093,25.6,25.6
				c0,14.507-11.093,25.6-25.6,25.6H101.4c-14.507,0-25.6-11.093-25.6-25.6C75.8,121.027,86.893,109.933,101.4,109.933z
				 M100.547,477.72l-15.36-265.387h25.088l11.264,281.6h-3.925C108.227,493.933,101.4,487.107,100.547,477.72z M138.093,493.933
				L127,212.333h23.04l11.093,281.6H138.093z M347.672,212.333l-11.264,281.6h-46.421V373.278
				c19.894-11.964,33.28-33.764,33.28-58.545c0-25.131-13.773-47.187-34.133-59.037v-43.363H347.672z M203.8,314.733
				c0-19.888,11.499-37.209,28.17-45.677c0.59-0.096,1.165-0.226,1.697-0.403c6.765-3.383,14.159-5.084,21.559-5.114
				c6.897,0.03,13.483,1.441,19.495,3.971c0.83,0.358,1.653,0.737,2.466,1.143c0.352,0.352,0.851,0.554,1.374,0.676
				c16.384,8.564,27.64,25.728,27.64,45.404c0,20.172-11.825,37.714-28.884,46.044c-0.042,0.013-0.088,0.022-0.13,0.036
				c-0.813,0.406-1.636,0.785-2.466,1.143c-6.012,2.53-12.598,3.941-19.495,3.971c-7.4-0.03-14.793-1.732-21.559-5.114
				c-0.532-0.177-1.106-0.307-1.697-0.403C215.299,351.942,203.8,334.621,203.8,314.733z M272.067,248.642
				c-4.609-1.198-9.406-1.909-14.33-2.106c-0.897-0.042-1.804-0.07-2.737-0.07s-1.839,0.028-2.737,0.07
				c-4.924,0.197-9.721,0.908-14.33,2.106v-36.309h34.133V248.642z M220.867,255.696c-20.36,11.85-34.133,33.906-34.133,59.037
				s13.773,47.187,34.133,59.037v120.163h-43.008l-11.264-281.6h54.272V255.696z M237.933,493.933V380.825
				C243.393,382.243,249.112,383,255,383c5.888,0,11.607-0.757,17.067-2.175v113.109H237.933z M353.133,493.933l11.093-281.6h22.187
				l-11.093,281.6H353.133z M410.307,477.72c-0.853,9.387-7.68,16.213-17.067,16.213h-0.512l11.264-281.6h20.821L410.307,477.72z
				 M434.2,195.267h-38.4h-39.253H280.6h-51.2h-71.68h-39.253H75.8c-5.12,0-8.533-3.413-8.533-8.533S70.68,178.2,75.8,178.2h25.6
				h307.2h25.6c5.12,0,8.533,3.413,8.533,8.533S439.32,195.267,434.2,195.267z"/>
		</g>
	</g>
</g>
</svg>