<?xml version="1.0" standalone="no"?>
<!DOCTYPE svg PUBLIC "-//W3C//DTD SVG 20010904//EN"
 "http://www.w3.org/TR/2001/REC-SVG-20010904/DTD/svg10.dtd">
<svg version="1.0" xmlns="http://www.w3.org/2000/svg"
 width="341.000000pt" height="89.000000pt" viewBox="0 0 341.000000 89.000000"
 preserveAspectRatio="xMidYMid meet">

<g transform="translate(0.000000,89.000000) scale(0.100000,-0.100000)"
fill="#D71313" stroke="none">
<path d="M2970 465 l0 -415 75 0 75 0 0 98 c1 63 5 106 15 122 l13 25 10 -25
c5 -14 24 -67 42 -118 19 -52 39 -96 45 -98 7 -3 46 -4 88 -2 l76 3 -75 169
-74 170 57 100 c31 56 63 111 71 124 l15 23 -88 -3 -87 -3 -47 -113 c-27 -62
-51 -115 -54 -119 -4 -3 -7 102 -7 235 l0 242 -75 0 -75 0 0 -415z"/>
<path d="M225 634 c-16 -8 -40 -25 -52 -36 l-23 -21 0 31 0 32 -70 0 -70 0 2
-292 3 -293 78 -3 77 -3 0 209 c0 198 1 211 21 236 15 19 29 26 47 24 46 -5
52 -34 52 -260 l0 -208 74 0 75 0 3 208 c3 179 5 212 21 235 20 32 56 36 80 9
14 -15 17 -51 19 -233 l3 -214 78 -3 77 -3 0 210 c0 255 -8 301 -61 355 -38
37 -40 38 -99 34 -48 -3 -67 -10 -99 -36 -40 -32 -40 -32 -51 -11 -24 45 -127
63 -185 33z"/>
<path d="M955 636 c-43 -20 -91 -73 -116 -130 -46 -104 -33 -291 27 -377 74
-107 248 -110 328 -6 102 134 76 414 -45 494 -49 33 -145 42 -194 19z m121
-138 c22 -43 30 -190 15 -256 -7 -28 -21 -58 -32 -67 -17 -16 -20 -16 -43 -1
-36 23 -48 77 -44 197 2 79 7 112 21 132 25 39 62 36 83 -5z"/>
<path d="M1300 633 c1 -5 36 -136 79 -293 l78 -285 73 0 73 0 73 273 c40 150
76 281 79 292 6 19 2 20 -73 20 l-79 0 -33 -202 c-18 -112 -34 -204 -35 -206
-1 -1 -17 90 -36 203 l-33 205 -83 0 c-46 0 -83 -3 -83 -7z"/>
<path d="M1965 622 c-46 -22 -89 -68 -110 -119 -41 -98 -37 -250 9 -341 29
-58 48 -75 111 -103 40 -18 61 -21 120 -16 90 7 158 26 151 43 -3 7 -8 29 -12
48 -3 20 -10 38 -14 41 -4 3 -33 0 -64 -7 -76 -15 -129 1 -156 45 -35 56 -29
63 57 71 42 3 102 6 135 6 72 0 75 5 61 115 -19 155 -76 227 -187 232 -44 3
-72 -2 -101 -15z m110 -109 c20 -20 35 -57 35 -87 0 -26 -29 -36 -101 -36 -42
0 -44 3 -30 63 16 69 60 96 96 60z"/>
<path d="M2575 601 c-72 -18 -122 -76 -161 -191 -33 -100 -32 -107 19 -120
226 -60 233 -65 179 -120 -39 -39 -97 -41 -166 -6 l-47 24 -24 -49 c-14 -27
-25 -51 -25 -54 0 -4 30 -20 68 -38 56 -26 79 -31 144 -32 69 0 80 3 119 30
54 38 105 129 125 226 34 161 -22 289 -140 324 -27 8 -52 15 -55 14 -3 -1 -20
-4 -36 -8z m89 -133 c16 -22 23 -128 9 -128 -31 0 -123 35 -123 47 0 36 53
103 81 103 10 0 25 -10 33 -22z"/>
</g>
</svg>
